<svg width="350" height="350" viewBox="0 0 350 350" fill="none" xmlns="http://www.w3.org/2000/svg">
<mask id="mask0_358_2651" style="mask-type:alpha" maskUnits="userSpaceOnUse" x="0" y="0" width="350" height="350">
<rect width="350" height="350" fill="#D9D9D9"/>
</mask>
<g mask="url(#mask0_358_2651)">
<circle cx="138" cy="136.346" r="12" fill="url(#paint0_linear_358_2651)"/>
<path d="M159.525 146.346V127.421H162.8V139.821L161.55 139.446L167.95 132.746H172.025L167 138.221L172.125 146.346H168.375L163.925 139.296L165.875 138.896L161.775 143.296L162.8 141.296V146.346H159.525ZM172.704 146.346L179.129 127.721H183.529L189.954 146.346H186.254L184.929 142.346H177.729L176.379 146.346H172.704ZM178.704 139.346H183.954L180.854 130.071H181.804L178.704 139.346ZM192.027 146.346V127.721H195.427V146.346H192.027ZM198.734 146.346V132.746H201.809V135.771L201.559 135.321C201.876 134.304 202.367 133.596 203.034 133.196C203.717 132.796 204.534 132.596 205.484 132.596H206.284V135.496H205.109C204.176 135.496 203.426 135.787 202.859 136.371C202.292 136.937 202.009 137.737 202.009 138.771V146.346H198.734ZM214.735 146.646C213.401 146.646 212.185 146.337 211.085 145.721C210.001 145.104 209.135 144.262 208.485 143.196C207.851 142.129 207.535 140.912 207.535 139.546C207.535 138.179 207.851 136.962 208.485 135.896C209.135 134.829 210.001 133.987 211.085 133.371C212.168 132.754 213.385 132.446 214.735 132.446C216.068 132.446 217.276 132.754 218.36 133.371C219.443 133.987 220.301 134.829 220.935 135.896C221.585 136.946 221.91 138.162 221.91 139.546C221.91 140.912 221.585 142.129 220.935 143.196C220.285 144.262 219.418 145.104 218.335 145.721C217.251 146.337 216.051 146.646 214.735 146.646ZM214.735 143.646C215.468 143.646 216.11 143.471 216.66 143.121C217.226 142.771 217.668 142.287 217.985 141.671C218.318 141.037 218.485 140.329 218.485 139.546C218.485 138.746 218.318 138.046 217.985 137.446C217.668 136.829 217.226 136.346 216.66 135.996C216.11 135.629 215.468 135.446 214.735 135.446C213.985 135.446 213.326 135.629 212.76 135.996C212.193 136.346 211.743 136.829 211.41 137.446C211.093 138.046 210.935 138.746 210.935 139.546C210.935 140.329 211.093 141.037 211.41 141.671C211.743 142.287 212.193 142.771 212.76 143.121C213.326 143.471 213.985 143.646 214.735 143.646Z" fill="url(#paint1_linear_358_2651)"/>
<path d="M59.054 209.389C62.5555 211.731 64.9359 215.649 65.1383 220.18C65.3408 224.711 63.3185 228.826 60.0395 231.47C56.5386 229.128 54.1586 225.211 53.9562 220.68C53.7538 216.149 55.7749 212.034 59.054 209.389Z" fill="url(#paint2_linear_358_2651)"/>
<path d="M47.6755 198.032C50.326 201.307 51.4379 205.755 50.2878 210.143C49.1378 214.531 45.9873 217.861 42.0719 219.415C39.4218 216.14 38.3104 211.692 39.4605 207.304C40.6105 202.917 43.7604 199.586 47.6755 198.032Z" fill="url(#paint3_linear_358_2651)"/>
<path d="M39.8661 185.428C41.345 189.373 40.9929 193.945 38.5143 197.744C36.0357 201.543 31.9934 203.706 27.7873 203.942C26.309 199.997 26.6619 195.426 29.1402 191.627C31.6187 187.829 35.6602 185.664 39.8661 185.428Z" fill="url(#paint4_linear_358_2651)"/>
<path d="M40.9685 169.843C41.0834 174.055 39.2637 178.263 35.6839 181.049C32.1045 183.835 27.5788 184.565 23.5248 183.42C23.4102 179.209 25.23 175.001 28.8092 172.216C32.3885 169.43 36.9146 168.698 40.9685 169.843Z" fill="url(#paint5_linear_358_2651)"/>
<path d="M44.5972 152.815C43.6148 156.912 40.7646 160.503 36.5846 162.264C32.405 164.025 27.8454 163.555 24.2278 161.397C25.2105 157.302 28.0597 153.711 32.239 151.95C36.4186 150.189 40.9795 150.657 44.5972 152.815Z" fill="url(#paint6_linear_358_2651)"/>
<path d="M54.4374 139.291C52.718 143.137 49.2557 146.142 44.8229 147.104C40.3906 148.066 35.9946 146.766 32.8359 143.979C34.5553 140.134 38.017 137.128 42.4494 136.166C46.8817 135.205 51.2786 136.504 54.4374 139.291Z" fill="url(#paint7_linear_358_2651)"/>
<path d="M55.3863 113.809C56.1743 117.948 55.052 122.393 51.9646 125.717C48.8776 129.04 44.5273 130.486 40.3423 130.005C39.5548 125.866 40.677 121.421 43.7639 118.098C46.8509 114.776 51.2014 113.328 55.3863 113.809Z" fill="url(#paint8_linear_358_2651)"/>
<path d="M16.7423 213.882C20.2631 211.569 24.7995 210.902 29.052 212.48C33.3044 214.058 36.3064 217.523 37.4655 221.573C33.9448 223.887 29.4093 224.553 25.157 222.975C20.9046 221.397 17.9013 217.933 16.7423 213.882Z" fill="url(#paint9_linear_358_2651)"/>
<path d="M5.50731 190.686C9.57906 189.605 14.0936 190.407 17.6288 193.249C21.1639 196.091 22.9163 200.327 22.7352 204.536C18.6637 205.617 14.15 204.815 10.6151 201.974C7.07996 199.132 5.32616 194.895 5.50731 190.686Z" fill="url(#paint10_linear_358_2651)"/>
<path d="M6.77269 163.637C10.9748 163.939 14.9827 166.166 17.4011 170.003C19.8192 173.841 20.0986 178.416 18.5583 182.337C14.3567 182.035 10.3494 179.808 7.93124 175.971C5.51321 172.134 5.23258 167.558 6.77269 163.637Z" fill="url(#paint11_linear_358_2651)"/>
<path d="M34.2089 233.699C36.8856 230.445 41.0211 228.465 45.5505 228.711C50.0792 228.958 53.974 231.375 56.2818 234.899C53.6051 238.152 49.4702 240.133 44.9412 239.887C40.4124 239.64 36.5167 237.223 34.2089 233.699Z" fill="url(#paint12_linear_358_2651)"/>
<path d="M26.2948 118.893C29.9516 120.984 32.6001 124.726 33.1191 129.232C33.6381 133.738 31.909 137.985 28.8228 140.852C25.1663 138.761 22.5184 135.019 21.9994 130.513C21.4805 126.007 23.2089 121.761 26.2948 118.893Z" fill="url(#paint13_linear_358_2651)"/>
<path d="M13.1816 137.944C17.1609 139.326 20.453 142.518 21.7922 146.851C23.1313 151.185 22.2134 155.676 19.7082 159.063C15.729 157.68 12.4371 154.49 11.0979 150.156C9.75865 145.823 10.6761 141.33 13.1816 137.944Z" fill="url(#paint14_linear_358_2651)"/>
<path d="M290.496 209.389C286.994 211.731 284.614 215.649 284.411 220.18C284.209 224.711 286.231 228.826 289.51 231.47C293.011 229.128 295.391 225.211 295.594 220.68C295.796 216.149 293.775 212.034 290.496 209.389Z" fill="url(#paint15_linear_358_2651)"/>
<path d="M301.874 198.032C299.224 201.307 298.112 205.755 299.262 210.143C300.412 214.53 303.562 217.86 307.477 219.414C310.127 216.139 311.239 211.692 310.089 207.304C308.939 202.917 305.789 199.586 301.874 198.032Z" fill="url(#paint16_linear_358_2651)"/>
<path d="M309.683 185.431C308.205 189.375 308.557 193.946 311.035 197.744C313.514 201.543 317.556 203.706 321.762 203.942C323.24 199.997 322.887 195.427 320.41 191.629C317.931 187.831 313.889 185.667 309.683 185.431Z" fill="url(#paint17_linear_358_2651)"/>
<path d="M308.581 169.843C308.466 174.055 310.286 178.263 313.866 181.049C317.445 183.835 321.971 184.565 326.025 183.42C326.139 179.209 324.32 175.001 320.74 172.216C317.161 169.43 312.635 168.698 308.581 169.843Z" fill="url(#paint18_linear_358_2651)"/>
<path d="M304.952 152.815C305.935 156.912 308.785 160.503 312.965 162.264C317.145 164.025 321.704 163.555 325.322 161.397C324.339 157.302 321.49 153.711 317.311 151.95C313.131 150.189 308.57 150.657 304.952 152.815Z" fill="url(#paint19_linear_358_2651)"/>
<path d="M295.112 139.291C296.832 143.137 300.294 146.142 304.727 147.104C309.159 148.066 313.555 146.766 316.714 143.979C314.994 140.134 311.533 137.128 307.1 136.166C302.668 135.205 298.271 136.504 295.112 139.291Z" fill="url(#paint20_linear_358_2651)"/>
<path d="M294.164 113.809C293.376 117.948 294.498 122.393 297.585 125.717C300.672 129.04 305.022 130.486 309.208 130.005C309.995 125.866 308.873 121.421 305.786 118.098C302.699 114.776 298.348 113.328 294.164 113.809Z" fill="url(#paint21_linear_358_2651)"/>
<path d="M332.808 213.882C329.287 211.569 324.75 210.902 320.498 212.48C316.245 214.058 313.243 217.523 312.084 221.573C315.605 223.887 320.141 224.553 324.393 222.975C328.645 221.397 331.648 217.933 332.808 213.882Z" fill="url(#paint22_linear_358_2651)"/>
<path d="M344.042 190.686C339.97 189.605 335.456 190.407 331.921 193.249C328.386 196.091 326.633 200.327 326.814 204.536C330.886 205.617 335.4 204.815 338.934 201.974C342.47 199.132 344.223 194.895 344.042 190.686Z" fill="url(#paint23_linear_358_2651)"/>
<path d="M342.777 163.637C338.575 163.939 334.567 166.166 332.149 170.003C329.731 173.841 329.451 178.416 330.991 182.337C335.193 182.035 339.2 179.808 341.619 175.971C344.037 172.134 344.317 167.558 342.777 163.637Z" fill="url(#paint24_linear_358_2651)"/>
<path d="M315.341 233.699C312.664 230.445 308.528 228.465 303.999 228.711C299.47 228.958 295.576 231.375 293.268 234.899C295.944 238.152 300.079 240.133 304.608 239.887C309.137 239.64 313.033 237.223 315.341 233.699Z" fill="url(#paint25_linear_358_2651)"/>
<path d="M323.255 118.893C319.598 120.984 316.95 124.726 316.431 129.232C315.912 133.738 317.641 137.985 320.727 140.852C324.384 138.761 327.031 135.019 327.55 130.513C328.069 126.007 326.341 121.761 323.255 118.893Z" fill="url(#paint26_linear_358_2651)"/>
<path d="M336.368 137.944C332.389 139.326 329.097 142.518 327.757 146.851C326.418 151.185 327.336 155.676 329.841 159.063C333.821 157.68 337.112 154.49 338.452 150.156C339.791 145.823 338.873 141.33 336.368 137.944Z" fill="url(#paint27_linear_358_2651)"/>
<path d="M94.6198 182.24C93.6732 182.24 92.8065 182.067 92.0198 181.72C91.2332 181.36 90.5665 180.873 90.0198 180.26C89.4732 179.647 89.0798 178.96 88.8398 178.2L90.5398 177.5C90.8998 178.46 91.4332 179.2 92.1398 179.72C92.8598 180.227 93.6998 180.48 94.6598 180.48C95.2465 180.48 95.7598 180.387 96.1998 180.2C96.6398 180.013 96.9798 179.753 97.2198 179.42C97.4732 179.073 97.5998 178.673 97.5998 178.22C97.5998 177.593 97.4198 177.1 97.0598 176.74C96.7132 176.367 96.1998 176.087 95.5198 175.9L92.7798 175.06C91.6998 174.727 90.8732 174.2 90.2998 173.48C89.7265 172.76 89.4398 171.933 89.4398 171C89.4398 170.187 89.6332 169.473 90.0198 168.86C90.4198 168.233 90.9665 167.747 91.6598 167.4C92.3665 167.04 93.1665 166.86 94.0598 166.86C94.9532 166.86 95.7598 167.02 96.4798 167.34C97.2132 167.66 97.8332 168.093 98.3398 168.64C98.8465 169.173 99.2198 169.787 99.4598 170.48L97.7798 171.18C97.4598 170.34 96.9798 169.707 96.3398 169.28C95.6998 168.84 94.9465 168.62 94.0798 168.62C93.5465 168.62 93.0732 168.713 92.6598 168.9C92.2598 169.073 91.9465 169.333 91.7198 169.68C91.5065 170.013 91.3998 170.413 91.3998 170.88C91.3998 171.427 91.5732 171.913 91.9198 172.34C92.2665 172.767 92.7932 173.093 93.4998 173.32L95.9998 174.06C97.1732 174.42 98.0598 174.933 98.6598 175.6C99.2598 176.267 99.5598 177.093 99.5598 178.08C99.5598 178.893 99.3465 179.613 98.9198 180.24C98.5065 180.867 97.9265 181.36 97.1798 181.72C96.4465 182.067 95.5932 182.24 94.6198 182.24ZM102.43 182V167.1H104.39V182H102.43ZM107.703 182V167.1H109.503L115.083 175.04H114.163L119.703 167.1H121.503V182H119.523V169.58L120.223 169.8L114.683 177.6H114.523L109.043 169.8L109.663 169.58V182H107.703ZM124.812 182V167.1H130.072C131.059 167.1 131.926 167.287 132.672 167.66C133.419 168.033 133.999 168.567 134.412 169.26C134.839 169.953 135.052 170.767 135.052 171.7C135.052 172.633 134.839 173.447 134.412 174.14C133.999 174.82 133.419 175.353 132.672 175.74C131.939 176.113 131.072 176.3 130.072 176.3H126.772V182H124.812ZM126.772 174.5H130.132C130.732 174.5 131.252 174.387 131.692 174.16C132.132 173.933 132.472 173.607 132.712 173.18C132.952 172.753 133.072 172.26 133.072 171.7C133.072 171.127 132.952 170.633 132.712 170.22C132.472 169.793 132.132 169.467 131.692 169.24C131.252 169.013 130.732 168.9 130.132 168.9H126.772V174.5ZM137.703 182V167.1H139.663V180.2H146.203V182H137.703ZM148.406 182V167.1H150.366V182H148.406ZM153.68 182V167.1H163.12V168.9H155.64V173.72H162.42V175.52H155.64V182H153.68ZM165.34 182V167.1H167.3V182H165.34ZM170.613 182V167.1H180.313V168.9H172.573V173.62H179.913V175.42H172.573V180.2H180.313V182H170.613ZM187.862 182.24C186.915 182.24 186.049 182.067 185.262 181.72C184.475 181.36 183.809 180.873 183.262 180.26C182.715 179.647 182.322 178.96 182.082 178.2L183.782 177.5C184.142 178.46 184.675 179.2 185.382 179.72C186.102 180.227 186.942 180.48 187.902 180.48C188.489 180.48 189.002 180.387 189.442 180.2C189.882 180.013 190.222 179.753 190.462 179.42C190.715 179.073 190.842 178.673 190.842 178.22C190.842 177.593 190.662 177.1 190.302 176.74C189.955 176.367 189.442 176.087 188.762 175.9L186.022 175.06C184.942 174.727 184.115 174.2 183.542 173.48C182.969 172.76 182.682 171.933 182.682 171C182.682 170.187 182.875 169.473 183.262 168.86C183.662 168.233 184.209 167.747 184.902 167.4C185.609 167.04 186.409 166.86 187.302 166.86C188.195 166.86 189.002 167.02 189.722 167.34C190.455 167.66 191.075 168.093 191.582 168.64C192.089 169.173 192.462 169.787 192.702 170.48L191.022 171.18C190.702 170.34 190.222 169.707 189.582 169.28C188.942 168.84 188.189 168.62 187.322 168.62C186.789 168.62 186.315 168.713 185.902 168.9C185.502 169.073 185.189 169.333 184.962 169.68C184.749 170.013 184.642 170.413 184.642 170.88C184.642 171.427 184.815 171.913 185.162 172.34C185.509 172.767 186.035 173.093 186.742 173.32L189.242 174.06C190.415 174.42 191.302 174.933 191.902 175.6C192.502 176.267 192.802 177.093 192.802 178.08C192.802 178.893 192.589 179.613 192.162 180.24C191.749 180.867 191.169 181.36 190.422 181.72C189.689 182.067 188.835 182.24 187.862 182.24ZM199.129 182V167.1H201.089V182H199.129ZM204.402 182V167.1H206.202L211.782 175.04H210.862L216.402 167.1H218.202V182H216.222V169.58L216.922 169.8L211.382 177.6H211.222L205.742 169.8L206.362 169.58V182H204.402ZM220.072 182L225.412 167.1H227.732L233.072 182H230.972L229.752 178.5H223.392L222.172 182H220.072ZM224.012 176.7H229.132L226.292 168.52H226.852L224.012 176.7ZM241.224 182.24C240.17 182.24 239.197 182.053 238.304 181.68C237.41 181.293 236.637 180.753 235.984 180.06C235.33 179.367 234.817 178.553 234.444 177.62C234.084 176.687 233.904 175.667 233.904 174.56C233.904 173.44 234.084 172.413 234.444 171.48C234.804 170.547 235.31 169.733 235.964 169.04C236.617 168.347 237.39 167.813 238.284 167.44C239.177 167.053 240.15 166.86 241.204 166.86C242.23 166.86 243.15 167.04 243.964 167.4C244.79 167.76 245.484 168.227 246.044 168.8C246.617 169.373 247.024 169.987 247.264 170.64L245.504 171.5C245.157 170.633 244.617 169.947 243.884 169.44C243.15 168.933 242.257 168.68 241.204 168.68C240.164 168.68 239.237 168.927 238.424 169.42C237.624 169.913 236.997 170.6 236.544 171.48C236.09 172.36 235.864 173.387 235.864 174.56C235.864 175.72 236.09 176.74 236.544 177.62C237.01 178.5 237.644 179.187 238.444 179.68C239.257 180.173 240.184 180.42 241.224 180.42C242.13 180.42 242.95 180.227 243.684 179.84C244.417 179.453 244.997 178.92 245.424 178.24C245.85 177.56 246.064 176.773 246.064 175.88V174.96L246.964 175.8H241.204V174.1H248.044V175.42C248.044 176.46 247.864 177.4 247.504 178.24C247.144 179.08 246.65 179.8 246.024 180.4C245.397 180.987 244.67 181.44 243.844 181.76C243.017 182.08 242.144 182.24 241.224 182.24ZM250.691 182V167.1H260.391V168.9H252.651V173.62H259.991V175.42H252.651V180.2H260.391V182H250.691ZM109.192 206.24C108.139 206.24 107.165 206.053 106.272 205.68C105.392 205.293 104.619 204.753 103.952 204.06C103.299 203.367 102.792 202.553 102.432 201.62C102.072 200.687 101.892 199.667 101.892 198.56C101.892 197.44 102.072 196.413 102.432 195.48C102.792 194.547 103.299 193.733 103.952 193.04C104.605 192.347 105.379 191.813 106.272 191.44C107.165 191.053 108.139 190.86 109.192 190.86C110.219 190.86 111.139 191.04 111.952 191.4C112.779 191.76 113.472 192.227 114.032 192.8C114.605 193.373 115.012 193.987 115.252 194.64L113.452 195.46C113.105 194.633 112.565 193.967 111.832 193.46C111.099 192.94 110.219 192.68 109.192 192.68C108.152 192.68 107.225 192.927 106.412 193.42C105.612 193.913 104.985 194.6 104.532 195.48C104.079 196.36 103.852 197.387 103.852 198.56C103.852 199.72 104.079 200.74 104.532 201.62C104.985 202.5 105.612 203.187 106.412 203.68C107.225 204.173 108.152 204.42 109.192 204.42C110.219 204.42 111.099 204.167 111.832 203.66C112.565 203.14 113.105 202.467 113.452 201.64L115.252 202.46C115.012 203.113 114.605 203.727 114.032 204.3C113.472 204.873 112.779 205.34 111.952 205.7C111.139 206.06 110.219 206.24 109.192 206.24ZM117.918 206V191.1H123.178C124.164 191.1 125.031 191.287 125.778 191.66C126.524 192.033 127.104 192.567 127.518 193.26C127.944 193.953 128.158 194.767 128.158 195.7C128.158 196.753 127.891 197.647 127.358 198.38C126.824 199.113 126.104 199.64 125.198 199.96L128.658 206H126.378L122.738 199.54L124.038 200.3H119.878V206H117.918ZM119.878 198.5H123.238C123.824 198.5 124.338 198.387 124.778 198.16C125.218 197.933 125.558 197.607 125.798 197.18C126.051 196.753 126.178 196.26 126.178 195.7C126.178 195.127 126.051 194.633 125.798 194.22C125.558 193.793 125.218 193.467 124.778 193.24C124.338 193.013 123.824 192.9 123.238 192.9H119.878V198.5ZM130.887 206V191.1H140.587V192.9H132.847V197.62H140.187V199.42H132.847V204.2H140.587V206H130.887ZM141.575 206L146.915 191.1H149.235L154.575 206H152.475L151.255 202.5H144.895L143.675 206H141.575ZM145.515 200.7H150.635L147.795 192.52H148.355L145.515 200.7ZM158.057 206V192.9H154.017V191.1H164.017V192.9H160.037V206H158.057ZM165.906 206V191.1H167.866V206H165.906ZM178.3 206.24C177.246 206.24 176.26 206.053 175.34 205.68C174.42 205.293 173.613 204.753 172.92 204.06C172.24 203.367 171.706 202.553 171.32 201.62C170.933 200.673 170.74 199.647 170.74 198.54C170.74 197.42 170.933 196.393 171.32 195.46C171.706 194.527 172.24 193.713 172.92 193.02C173.613 192.327 174.413 191.793 175.32 191.42C176.24 191.047 177.233 190.86 178.3 190.86C179.366 190.86 180.353 191.053 181.26 191.44C182.18 191.813 182.98 192.347 183.66 193.04C184.353 193.72 184.893 194.527 185.28 195.46C185.68 196.393 185.88 197.42 185.88 198.54C185.88 199.647 185.68 200.673 185.28 201.62C184.893 202.553 184.353 203.367 183.66 204.06C182.98 204.753 182.18 205.293 181.26 205.68C180.353 206.053 179.366 206.24 178.3 206.24ZM178.3 204.42C179.126 204.42 179.88 204.273 180.56 203.98C181.24 203.673 181.826 203.253 182.32 202.72C182.826 202.173 183.213 201.547 183.48 200.84C183.76 200.12 183.9 199.353 183.9 198.54C183.9 197.727 183.76 196.967 183.48 196.26C183.213 195.553 182.826 194.933 182.32 194.4C181.826 193.853 181.24 193.433 180.56 193.14C179.88 192.833 179.126 192.68 178.3 192.68C177.486 192.68 176.74 192.833 176.06 193.14C175.38 193.433 174.786 193.853 174.28 194.4C173.786 194.933 173.4 195.553 173.12 196.26C172.84 196.967 172.7 197.727 172.7 198.54C172.7 199.353 172.84 200.12 173.12 200.84C173.4 201.547 173.786 202.173 174.28 202.72C174.786 203.253 175.38 203.673 176.06 203.98C176.74 204.273 177.486 204.42 178.3 204.42ZM188.738 206V191.1H190.378L198.938 203.14L198.198 203.22V191.1H200.178V206H198.538L190.018 193.88L190.698 193.8V206H188.738ZM205.521 206L210.861 191.1H213.181L218.521 206H216.421L215.201 202.5H208.841L207.621 206H205.521ZM209.461 200.7H214.581L211.741 192.52H212.301L209.461 200.7ZM220.398 206V191.1H222.038L230.598 203.14L229.858 203.22V191.1H231.838V206H230.198L221.678 193.88L222.358 193.8V206H220.398ZM235.164 206V191.1H240.044C241.551 191.1 242.864 191.407 243.984 192.02C245.104 192.633 245.971 193.5 246.584 194.62C247.197 195.727 247.504 197.033 247.504 198.54C247.504 200.033 247.197 201.34 246.584 202.46C245.971 203.58 245.104 204.453 243.984 205.08C242.864 205.693 241.551 206 240.044 206H235.164ZM237.124 204.2H240.064C241.171 204.2 242.124 203.967 242.924 203.5C243.737 203.033 244.364 202.38 244.804 201.54C245.244 200.687 245.464 199.687 245.464 198.54C245.464 197.38 245.237 196.38 244.784 195.54C244.344 194.7 243.717 194.053 242.904 193.6C242.104 193.133 241.157 192.9 240.064 192.9H237.124V204.2ZM91.5799 230V215.1H101.28V216.9H93.5399V221.62H100.88V223.42H93.5399V228.2H101.28V230H91.5799ZM103.709 230V215.1H108.589C110.095 215.1 111.409 215.407 112.529 216.02C113.649 216.633 114.515 217.5 115.129 218.62C115.742 219.727 116.049 221.033 116.049 222.54C116.049 224.033 115.742 225.34 115.129 226.46C114.515 227.58 113.649 228.453 112.529 229.08C111.409 229.693 110.095 230 108.589 230H103.709ZM105.669 228.2H108.609C109.715 228.2 110.669 227.967 111.469 227.5C112.282 227.033 112.909 226.38 113.349 225.54C113.789 224.687 114.009 223.687 114.009 222.54C114.009 221.38 113.782 220.38 113.329 219.54C112.889 218.7 112.262 218.053 111.449 217.6C110.649 217.133 109.702 216.9 108.609 216.9H105.669V228.2ZM118.533 230V215.1H120.493V230H118.533ZM126.406 230V216.9H122.366V215.1H132.366V216.9H128.386V230H126.406ZM134.256 230V215.1H136.216V230H134.256ZM139.529 230V215.1H141.169L149.729 227.14L148.989 227.22V215.1H150.969V230H149.329L140.809 217.88L141.489 217.8V230H139.529ZM161.175 230.24C160.121 230.24 159.148 230.053 158.255 229.68C157.361 229.293 156.588 228.753 155.935 228.06C155.281 227.367 154.768 226.553 154.395 225.62C154.035 224.687 153.855 223.667 153.855 222.56C153.855 221.44 154.035 220.413 154.395 219.48C154.755 218.547 155.261 217.733 155.915 217.04C156.568 216.347 157.341 215.813 158.235 215.44C159.128 215.053 160.101 214.86 161.155 214.86C162.181 214.86 163.101 215.04 163.915 215.4C164.741 215.76 165.435 216.227 165.995 216.8C166.568 217.373 166.975 217.987 167.215 218.64L165.455 219.5C165.108 218.633 164.568 217.947 163.835 217.44C163.101 216.933 162.208 216.68 161.155 216.68C160.115 216.68 159.188 216.927 158.375 217.42C157.575 217.913 156.948 218.6 156.495 219.48C156.041 220.36 155.815 221.387 155.815 222.56C155.815 223.72 156.041 224.74 156.495 225.62C156.961 226.5 157.595 227.187 158.395 227.68C159.208 228.173 160.135 228.42 161.175 228.42C162.081 228.42 162.901 228.227 163.635 227.84C164.368 227.453 164.948 226.92 165.375 226.24C165.801 225.56 166.015 224.773 166.015 223.88V222.96L166.915 223.8H161.155V222.1H167.995V223.42C167.995 224.46 167.815 225.4 167.455 226.24C167.095 227.08 166.601 227.8 165.975 228.4C165.348 228.987 164.621 229.44 163.795 229.76C162.968 230.08 162.095 230.24 161.175 230.24ZM174.099 230V215.1H183.539V216.9H176.059V221.72H182.839V223.52H176.059V230H174.099ZM192.684 230.24C191.631 230.24 190.644 230.053 189.724 229.68C188.804 229.293 187.998 228.753 187.304 228.06C186.624 227.367 186.091 226.553 185.704 225.62C185.318 224.673 185.124 223.647 185.124 222.54C185.124 221.42 185.318 220.393 185.704 219.46C186.091 218.527 186.624 217.713 187.304 217.02C187.998 216.327 188.798 215.793 189.704 215.42C190.624 215.047 191.618 214.86 192.684 214.86C193.751 214.86 194.738 215.053 195.644 215.44C196.564 215.813 197.364 216.347 198.044 217.04C198.738 217.72 199.278 218.527 199.664 219.46C200.064 220.393 200.264 221.42 200.264 222.54C200.264 223.647 200.064 224.673 199.664 225.62C199.278 226.553 198.738 227.367 198.044 228.06C197.364 228.753 196.564 229.293 195.644 229.68C194.738 230.053 193.751 230.24 192.684 230.24ZM192.684 228.42C193.511 228.42 194.264 228.273 194.944 227.98C195.624 227.673 196.211 227.253 196.704 226.72C197.211 226.173 197.598 225.547 197.864 224.84C198.144 224.12 198.284 223.353 198.284 222.54C198.284 221.727 198.144 220.967 197.864 220.26C197.598 219.553 197.211 218.933 196.704 218.4C196.211 217.853 195.624 217.433 194.944 217.14C194.264 216.833 193.511 216.68 192.684 216.68C191.871 216.68 191.124 216.833 190.444 217.14C189.764 217.433 189.171 217.853 188.664 218.4C188.171 218.933 187.784 219.553 187.504 220.26C187.224 220.967 187.084 221.727 187.084 222.54C187.084 223.353 187.224 224.12 187.504 224.84C187.784 225.547 188.171 226.173 188.664 226.72C189.171 227.253 189.764 227.673 190.444 227.98C191.124 228.273 191.871 228.42 192.684 228.42ZM203.123 230V215.1H208.383C209.37 215.1 210.236 215.287 210.983 215.66C211.73 216.033 212.31 216.567 212.723 217.26C213.15 217.953 213.363 218.767 213.363 219.7C213.363 220.753 213.096 221.647 212.563 222.38C212.03 223.113 211.31 223.64 210.403 223.96L213.863 230H211.583L207.943 223.54L209.243 224.3H205.083V230H203.123ZM205.083 222.5H208.443C209.03 222.5 209.543 222.387 209.983 222.16C210.423 221.933 210.763 221.607 211.003 221.18C211.256 220.753 211.383 220.26 211.383 219.7C211.383 219.127 211.256 218.633 211.003 218.22C210.763 217.793 210.423 217.467 209.983 217.24C209.543 217.013 209.03 216.9 208.443 216.9H205.083V222.5ZM218.109 230L223.449 215.1H225.769L231.109 230H229.009L227.789 226.5H221.429L220.209 230H218.109ZM222.049 224.7H227.169L224.329 216.52H224.889L222.049 224.7ZM232.986 230V215.1H234.946V228.2H241.486V230H232.986ZM243.689 230V215.1H245.649V228.2H252.189V230H243.689ZM254.932 230V227.6H256.872V230H254.932Z" fill="url(#paint28_linear_358_2651)"/>
</g>
<defs>
<linearGradient id="paint0_linear_358_2651" x1="126" y1="136.346" x2="150" y2="136.346" gradientUnits="userSpaceOnUse">
<stop stop-color="#FAE6FF"/>
<stop offset="1" stop-color="#D4AF37"/>
</linearGradient>
<linearGradient id="paint1_linear_358_2651" x1="158" y1="151.346" x2="225.235" y2="127.701" gradientUnits="userSpaceOnUse">
<stop stop-color="#D4AF37"/>
<stop offset="1" stop-color="white"/>
</linearGradient>
<linearGradient id="paint2_linear_358_2651" x1="54.4494" y1="231.72" x2="67.312" y2="230.082" gradientUnits="userSpaceOnUse">
<stop stop-color="#D4AF37"/>
<stop offset="1" stop-color="white"/>
</linearGradient>
<linearGradient id="paint3_linear_358_2651" x1="36.6581" y1="217.996" x2="49.4279" y2="220.245" gradientUnits="userSpaceOnUse">
<stop stop-color="#D4AF37"/>
<stop offset="1" stop-color="white"/>
</linearGradient>
<linearGradient id="paint4_linear_358_2651" x1="23.1008" y1="200.884" x2="34.5042" y2="207.056" gradientUnits="userSpaceOnUse">
<stop stop-color="#D4AF37"/>
<stop offset="1" stop-color="white"/>
</linearGradient>
<linearGradient id="paint5_linear_358_2651" x1="20.0875" y1="179.003" x2="28.8626" y2="188.549" gradientUnits="userSpaceOnUse">
<stop stop-color="#D4AF37"/>
<stop offset="1" stop-color="white"/>
</linearGradient>
<linearGradient id="paint6_linear_358_2651" x1="22.0552" y1="156.241" x2="28.051" y2="167.736" gradientUnits="userSpaceOnUse">
<stop stop-color="#D4AF37"/>
<stop offset="1" stop-color="white"/>
</linearGradient>
<linearGradient id="paint7_linear_358_2651" x1="31.649" y1="138.51" x2="35.4271" y2="150.913" gradientUnits="userSpaceOnUse">
<stop stop-color="#D4AF37"/>
<stop offset="1" stop-color="white"/>
</linearGradient>
<linearGradient id="paint8_linear_358_2651" x1="36.2419" y1="126.195" x2="46.4326" y2="134.213" gradientUnits="userSpaceOnUse">
<stop stop-color="#D4AF37"/>
<stop offset="1" stop-color="white"/>
</linearGradient>
<linearGradient id="paint9_linear_358_2651" x1="35.5182" y1="226.82" x2="39.0191" y2="214.334" gradientUnits="userSpaceOnUse">
<stop stop-color="#D4AF37"/>
<stop offset="1" stop-color="white"/>
</linearGradient>
<linearGradient id="paint10_linear_358_2651" x1="19.2286" y1="208.898" x2="26.4981" y2="198.16" gradientUnits="userSpaceOnUse">
<stop stop-color="#D4AF37"/>
<stop offset="1" stop-color="white"/>
</linearGradient>
<linearGradient id="paint11_linear_358_2651" x1="13.8234" y1="185.321" x2="24.1902" y2="177.533" gradientUnits="userSpaceOnUse">
<stop stop-color="#D4AF37"/>
<stop offset="1" stop-color="white"/>
</linearGradient>
<linearGradient id="paint12_linear_358_2651" x1="55.9776" y1="240.488" x2="55.6196" y2="227.527" gradientUnits="userSpaceOnUse">
<stop stop-color="#D4AF37"/>
<stop offset="1" stop-color="white"/>
</linearGradient>
<linearGradient id="paint13_linear_358_2651" x1="23.2638" y1="141.493" x2="35.9803" y2="138.959" gradientUnits="userSpaceOnUse">
<stop stop-color="#D4AF37"/>
<stop offset="1" stop-color="white"/>
</linearGradient>
<linearGradient id="paint14_linear_358_2651" x1="14.361" y1="160.715" x2="26.3941" y2="155.885" gradientUnits="userSpaceOnUse">
<stop stop-color="#D4AF37"/>
<stop offset="1" stop-color="white"/>
</linearGradient>
<linearGradient id="paint15_linear_358_2651" x1="295.1" y1="231.72" x2="282.238" y2="230.082" gradientUnits="userSpaceOnUse">
<stop stop-color="#D4AF37"/>
<stop offset="1" stop-color="white"/>
</linearGradient>
<linearGradient id="paint16_linear_358_2651" x1="312.891" y1="217.995" x2="300.121" y2="220.244" gradientUnits="userSpaceOnUse">
<stop stop-color="#D4AF37"/>
<stop offset="1" stop-color="white"/>
</linearGradient>
<linearGradient id="paint17_linear_358_2651" x1="326.448" y1="200.884" x2="315.046" y2="207.056" gradientUnits="userSpaceOnUse">
<stop stop-color="#D4AF37"/>
<stop offset="1" stop-color="white"/>
</linearGradient>
<linearGradient id="paint18_linear_358_2651" x1="329.462" y1="179.003" x2="320.687" y2="188.549" gradientUnits="userSpaceOnUse">
<stop stop-color="#D4AF37"/>
<stop offset="1" stop-color="white"/>
</linearGradient>
<linearGradient id="paint19_linear_358_2651" x1="327.494" y1="156.241" x2="321.499" y2="167.736" gradientUnits="userSpaceOnUse">
<stop stop-color="#D4AF37"/>
<stop offset="1" stop-color="white"/>
</linearGradient>
<linearGradient id="paint20_linear_358_2651" x1="317.901" y1="138.51" x2="314.122" y2="150.913" gradientUnits="userSpaceOnUse">
<stop stop-color="#D4AF37"/>
<stop offset="1" stop-color="white"/>
</linearGradient>
<linearGradient id="paint21_linear_358_2651" x1="313.308" y1="126.195" x2="303.117" y2="134.213" gradientUnits="userSpaceOnUse">
<stop stop-color="#D4AF37"/>
<stop offset="1" stop-color="white"/>
</linearGradient>
<linearGradient id="paint22_linear_358_2651" x1="314.032" y1="226.82" x2="310.531" y2="214.334" gradientUnits="userSpaceOnUse">
<stop stop-color="#D4AF37"/>
<stop offset="1" stop-color="white"/>
</linearGradient>
<linearGradient id="paint23_linear_358_2651" x1="330.321" y1="208.898" x2="323.051" y2="198.16" gradientUnits="userSpaceOnUse">
<stop stop-color="#D4AF37"/>
<stop offset="1" stop-color="white"/>
</linearGradient>
<linearGradient id="paint24_linear_358_2651" x1="335.726" y1="185.321" x2="325.36" y2="177.533" gradientUnits="userSpaceOnUse">
<stop stop-color="#D4AF37"/>
<stop offset="1" stop-color="white"/>
</linearGradient>
<linearGradient id="paint25_linear_358_2651" x1="293.572" y1="240.488" x2="293.93" y2="227.527" gradientUnits="userSpaceOnUse">
<stop stop-color="#D4AF37"/>
<stop offset="1" stop-color="white"/>
</linearGradient>
<linearGradient id="paint26_linear_358_2651" x1="326.286" y1="141.493" x2="313.57" y2="138.959" gradientUnits="userSpaceOnUse">
<stop stop-color="#D4AF37"/>
<stop offset="1" stop-color="white"/>
</linearGradient>
<linearGradient id="paint27_linear_358_2651" x1="335.189" y1="160.715" x2="323.155" y2="155.885" gradientUnits="userSpaceOnUse">
<stop stop-color="#D4AF37"/>
<stop offset="1" stop-color="white"/>
</linearGradient>
<linearGradient id="paint28_linear_358_2651" x1="84" y1="234" x2="264.352" y2="160.411" gradientUnits="userSpaceOnUse">
<stop stop-color="#D4AF37"/>
<stop offset="1" stop-color="white"/>
</linearGradient>
</defs>
</svg>
