<svg width="44" height="44" viewBox="0 0 44 44" fill="none" xmlns="http://www.w3.org/2000/svg">
<path d="M33.055 2.33301H38.4447C39.5088 2.33301 40.3007 2.64915 40.8255 3.17383C41.3503 3.69861 41.6663 4.49044 41.6663 5.55469V10.9443C41.6663 12.3963 41.0776 13.3583 40.1273 13.7891L40.1087 13.7979L40.0921 13.8066C39.6549 14.0479 39.1204 14.166 38.4447 14.166H33.055C31.9908 14.166 31.1989 13.85 30.6742 13.3252C30.1495 12.8004 29.8333 12.0085 29.8333 10.9443V5.55469C29.8333 4.87907 29.9516 4.34541 30.1927 3.9082L30.2025 3.89062L30.2103 3.87305C30.641 2.92253 31.6029 2.33301 33.055 2.33301ZM35.7503 2.9834C34.8585 2.9834 34.1497 3.73119 34.1497 4.60156V6.66797H33.7025L32.0892 6.64941H32.0833C31.2022 6.64941 30.4837 7.36886 30.4837 8.25C30.4839 9.12023 31.1917 9.86816 32.0833 9.86816H32.0872L34.1497 9.85254V11.916C34.1497 12.7972 34.8692 13.5166 35.7503 13.5166C36.1846 13.5165 36.5841 13.3291 36.8548 13.0586C37.1658 12.7476 37.3238 12.3729 37.349 11.9453L37.3499 11.9277V11.9111L37.3314 10.2969V9.86816H39.432L39.4476 9.86719C39.8596 9.84144 40.2503 9.66307 40.5218 9.3916L40.5296 9.38379L40.5365 9.37598C40.8021 9.08622 40.9897 8.72437 41.016 8.2793L41.0169 8.26465V8.25C41.0169 7.36886 40.2975 6.64941 39.4163 6.64941H37.3314V5.91016L37.3499 4.6084V4.60156C37.3499 3.7313 36.642 2.98358 35.7503 2.9834Z" fill="white" stroke="white"/>
<path d="M16.4999 10.8037C18.6336 10.8037 20.3632 12.5334 20.3632 14.667C20.3632 16.8007 18.6336 18.5303 16.4999 18.5303C14.3663 18.5302 12.6367 16.8006 12.6367 14.667C12.6367 12.5334 14.3663 10.8037 16.4999 10.8037Z" fill="white" stroke="white"/>
<path d="M38.445 14.667H37.5833V23.1187L37.345 22.917C35.915 21.6887 33.605 21.6887 32.175 22.917L24.5483 29.462C23.1183 30.6903 20.8083 30.6903 19.3783 29.462L18.755 28.9487C17.4533 27.812 15.3817 27.702 13.915 28.692L7.05833 33.2937C6.655 32.267 6.41667 31.0753 6.41667 29.682V14.3187C6.41667 9.14866 9.14833 6.41699 14.3183 6.41699H29.3333V5.55533C29.3333 4.82199 29.4617 4.19866 29.755 3.66699H14.3183C7.645 3.66699 3.66667 7.64532 3.66667 14.3187V29.682C3.66667 31.6803 4.015 33.422 4.69333 34.8887C6.27 38.372 9.64333 40.3337 14.3183 40.3337H29.6817C36.355 40.3337 40.3333 36.3553 40.3333 29.682V14.2453C39.8017 14.5387 39.1783 14.667 38.445 14.667Z" fill="white"/>
</svg>
