<svg width="71" height="71" viewBox="0 0 71 71" fill="none" xmlns="http://www.w3.org/2000/svg">
<path d="M27.2271 19.9845L22.6578 22.4666C18.7207 24.6053 16.7522 25.6746 15.6647 27.2577C14.7081 28.6502 14.2168 30.3098 14.2614 31.9986C14.3121 33.9186 15.3814 35.8871 17.5201 39.8242L22.4844 48.9629C24.623 52.8999 25.6924 54.8684 27.2754 55.9559C28.6679 56.9126 30.3275 57.4038 32.0164 57.3592C33.9363 57.3086 35.9049 56.2392 39.8419 54.1006L50.2701 48.4358C52.9959 46.9551 54.3588 46.2148 55.255 45.245C56.9433 43.4181 57.6858 40.9098 57.2638 38.4583C57.0398 37.1569 56.2995 35.794 54.8188 33.0683C53.886 31.3512 53.4196 30.4926 52.873 30.0943C51.8353 29.3382 50.4315 29.3263 49.3811 30.0647C48.8278 30.4537 48.3469 31.3042 47.3851 33.0052L44.0653 38.8772C42.7537 41.1969 40.1129 42.4265 37.4934 41.9371C34.2589 41.3328 31.1117 43.3463 30.3047 46.5363L29.5706 49.438" stroke="#B3FF10" stroke-width="3" stroke-linecap="round"/>
<path d="M35.4712 10.1461C35.452 10.0831 35.533 10.0391 35.5754 10.0895C37.7755 12.7056 41.3245 13.7561 44.5941 12.759C44.6571 12.7398 44.7011 12.8208 44.6507 12.8632C42.0346 15.0632 40.9841 18.6123 41.9812 21.8818C42.0004 21.9448 41.9194 21.9888 41.877 21.9384C39.6769 19.3224 36.1279 18.2719 32.8583 19.269C32.7954 19.2882 32.7513 19.2072 32.8017 19.1648C35.4178 16.9647 36.4683 13.4156 35.4712 10.1461Z" stroke="#F0FFD1" stroke-width="3"/>
<path d="M24.9707 32.5905L25.0184 32.6783" stroke="#B3FF10" stroke-width="4" stroke-linecap="round"/>
</svg>
