<svg width="58" height="58" viewBox="0 0 58 58" fill="none" xmlns="http://www.w3.org/2000/svg">
<g clip-path="url(#clip0_70_1004)">
<path d="M20.5633 26.6528C20.5724 25.7248 21.8477 25.4772 22.2034 26.3343C24.3861 31.5927 29.4964 35.0409 35.1895 35.0966C36.1175 35.1057 36.3652 36.381 35.5081 36.7368C30.2497 38.9194 26.8015 44.0298 26.7457 49.7229C26.7366 50.6509 25.4613 50.8985 25.1056 50.0414C22.9229 44.783 17.8126 41.3348 12.1195 41.2791C11.1915 41.27 10.9438 39.9947 11.8009 39.6389C17.0593 37.4563 20.5075 32.3459 20.5633 26.6528Z" stroke="#B3FF10" stroke-width="3"/>
<path d="M40.644 15.8288C40.6446 15.7629 40.7352 15.7453 40.7604 15.8062C42.0708 18.9632 45.139 21.0334 48.557 21.0669C48.6229 21.0675 48.6404 21.1581 48.5796 21.1833C45.4226 22.4937 43.3523 25.5619 43.3189 28.9799C43.3182 29.0458 43.2277 29.0633 43.2025 29.0025C41.892 25.8455 38.8239 23.7752 35.4059 23.7418C35.34 23.7411 35.3224 23.6506 35.3833 23.6254C38.5403 22.3149 40.6105 19.2468 40.644 15.8288Z" stroke="#F0FFD1" stroke-width="3"/>
<path d="M23.9976 8.15849C24.0078 7.11705 25.439 6.83909 25.8383 7.80101C26.7201 9.92551 28.7848 11.3186 31.0849 11.3412C32.1264 11.3514 32.4043 12.7826 31.4424 13.1819C29.3179 14.0637 27.9248 16.1284 27.9022 18.4285C27.892 19.4699 26.4608 19.7479 26.0616 18.786C25.1797 16.6615 23.115 15.2684 20.8149 15.2458C19.7735 15.2356 19.4955 13.8044 20.4574 13.4051C22.5819 12.5233 23.9751 10.4586 23.9976 8.15849Z" fill="#F0FFD1"/>
</g>
<defs>
<clipPath id="clip0_70_1004">
<rect width="48" height="48" fill="white" transform="translate(0.865234 10.0157) rotate(-10.9906)"/>
</clipPath>
</defs>
</svg>
