<svg width="68" height="68" viewBox="0 0 68 68" fill="none" xmlns="http://www.w3.org/2000/svg">
<path d="M50.9377 38.214C53.4944 32.9578 53.5491 27.1685 50.5236 22.7318C45.545 15.4313 34.1112 14.5579 24.9855 20.7811C24.4278 21.1614 23.8917 21.5594 23.3776 21.9732M50.9377 38.214C49.2873 41.6069 46.5944 44.7776 43.0146 47.2189C35.579 52.2895 32.4234 42.3375 38.6197 38.112C43.7695 34.6001 48.3282 35.5262 50.9377 38.214ZM50.9377 38.214C53.7707 41.1318 54.3065 46.1258 50.8076 49.772M31.2982 51.337C25.6401 51.6622 20.4257 49.5929 17.4765 45.2682C16.4927 43.8256 15.8346 42.24 15.4822 40.5762" stroke="#B3FF10" stroke-width="3" stroke-linecap="round"/>
<path d="M18.4906 25.5616C18.4651 25.5008 18.5413 25.4489 18.5885 25.4948C21.0409 27.876 24.6777 28.5637 27.8302 27.2424C27.891 27.2169 27.9429 27.2931 27.897 27.3403C25.5158 29.7927 24.8281 33.4295 26.1494 36.582C26.1749 36.6427 26.0987 36.6947 26.0515 36.6488C23.5991 34.2676 19.9623 33.5799 16.8098 34.9012C16.7491 34.9267 16.6971 34.8505 16.743 34.8032C19.1242 32.3509 19.8119 28.7141 18.4906 25.5616Z" stroke="#F0FFD1" stroke-width="3"/>
<path d="M5.54564 25.7207C5.18331 24.8562 6.26739 24.1169 6.93988 24.7699C8.42514 26.2121 10.6278 26.6286 12.5371 25.8283C13.4015 25.466 14.1408 26.5501 13.4878 27.2226C12.0457 28.7078 11.6292 30.9104 12.4294 32.8197C12.7918 33.6842 11.7077 34.4235 11.0352 33.7705C9.54993 32.3284 7.34731 31.9119 5.43801 32.7121C4.57353 33.0744 3.83425 31.9904 4.48722 31.3179C5.92938 29.8326 6.34589 27.63 5.54564 25.7207Z" fill="#F0FFD1"/>
</svg>
