<svg width="58" height="58" viewBox="0 0 58 58" fill="none" xmlns="http://www.w3.org/2000/svg">
<path d="M8.68931 17.0101C8.6531 15.9692 10.0705 15.6278 10.5122 16.5709C11.4878 18.654 13.6125 19.9538 15.9114 19.8738C16.9523 19.8376 17.2937 21.255 16.3505 21.6968C14.2674 22.6724 12.9677 24.7971 13.0476 27.0959C13.0838 28.1368 11.6664 28.4782 11.2247 27.5351C10.2491 25.452 8.12439 24.1522 5.82554 24.2322C4.78468 24.2684 4.44323 22.851 5.38641 22.4092C7.46951 21.4336 8.76928 19.3089 8.68931 17.0101Z" fill="#F0FFD1"/>
<path d="M30.8858 49.6396C27.8879 49.7043 24.7198 49.162 21.6132 47.9411C13.0462 44.574 7.65063 37.1082 7.96087 29.9537M39.1476 21.4125C45.6029 26.2971 47.4005 32.7963 46.1587 36.1813C43.6751 42.9512 34.9608 40.936 34.9608 40.936M17.9984 17.4907C22.0372 16.1279 26.8596 16.0669 31.6356 17.5648M24.8301 39.0721C23.8878 39.3295 22.9234 38.7396 22.7235 37.7834C22.1932 35.2466 22.6509 32.6031 24.0034 30.3923L35.3353 11.8683C36.4882 9.98379 38.9504 9.39066 40.8349 10.5435C42.7194 11.6963 43.3125 14.1585 42.1597 16.043L30.8277 34.5671C29.4753 36.7778 27.3302 38.3891 24.8301 39.0721Z" stroke="#B3FF10" stroke-width="3" stroke-linecap="round"/>
</svg>
