<svg width="80" height="80" viewBox="0 0 80 80" fill="none" xmlns="http://www.w3.org/2000/svg">
<path d="M13.5147 66.7222C12.0921 66.341 11.2479 64.8788 11.629 63.4562C12.0102 62.0336 13.4725 61.1894 14.895 61.5706C16.3176 61.9518 17.1618 63.414 16.7806 64.8366C16.3995 66.2592 14.9372 67.1034 13.5147 66.7222Z" fill="url(#paint0_linear_70_1146)"/>
<path d="M58.228 23.4884C56.8054 23.1072 55.9612 21.645 56.3424 20.2224C56.7235 18.7998 58.1858 17.9556 59.6083 18.3368C61.0309 18.7179 61.8751 20.1802 61.494 21.6028C61.1128 23.0253 59.6505 23.8695 58.228 23.4884Z" fill="url(#paint1_linear_70_1146)"/>
<path d="M65.7704 36.5523C64.3479 36.1711 63.5036 34.7089 63.8848 33.2863C64.266 31.8638 65.7282 31.0195 67.1508 31.4007C68.5734 31.7819 69.4176 33.2441 69.0364 34.6667C68.6553 36.0893 67.193 36.9335 65.7704 36.5523Z" fill="url(#paint2_linear_70_1146)"/>
<path d="M38.0124 23.6664C39.812 20.3699 44.8263 21.7134 44.7365 25.4681L44.4895 35.7995C44.4574 37.14 45.1769 38.3862 46.3539 39.0287L55.4246 43.9804C58.7211 45.78 57.3775 50.7943 53.6228 50.7045L43.2915 50.4575C41.951 50.4254 40.7048 51.1449 40.0623 52.3218L35.1106 61.3925C33.311 64.6891 28.2967 63.3455 28.3865 59.5908L28.6335 49.2595C28.6656 47.919 27.9461 46.6728 26.7691 46.0303L17.6985 41.0786C14.4019 39.279 15.7455 34.2647 19.5002 34.3545L29.8315 34.6015C31.172 34.6336 32.4182 33.9141 33.0607 32.7371L38.0124 23.6664Z" fill="url(#paint3_linear_70_1146)"/>
<path fill-rule="evenodd" clip-rule="evenodd" d="M61.0628 57.3639C62.1423 58.133 62.394 59.6317 61.6249 60.7112C56.6431 67.7039 48.9506 72.3319 40.479 73.4786C39.1655 73.6564 37.9566 72.7357 37.7788 71.4222C37.601 70.1087 38.5217 68.8998 39.8352 68.722C46.9953 67.7528 53.5047 63.8365 57.7156 57.926C58.4847 56.8465 59.9833 56.5948 61.0628 57.3639Z" fill="url(#paint4_linear_70_1146)"/>
<path fill-rule="evenodd" clip-rule="evenodd" d="M36.0071 13.9029C36.1344 15.2223 35.1681 16.3951 33.8487 16.5224C26.5833 17.2235 19.8992 20.9563 15.4804 26.7507C14.6766 27.8047 13.1706 28.0075 12.1167 27.2037C11.0627 26.4 10.8599 24.894 11.6636 23.84C16.8896 16.9872 24.7879 12.5744 33.3877 11.7446C34.707 11.6172 35.8798 12.5836 36.0071 13.9029Z" fill="url(#paint5_linear_70_1146)"/>
<path d="M5.97219 53.6583C4.54961 53.2771 3.70539 51.8148 4.08657 50.3923C4.46775 48.9697 5.92998 48.1255 7.35256 48.5067C8.77513 48.8878 9.61935 50.3501 9.23818 51.7726C8.857 53.1952 7.39477 54.0394 5.97219 53.6583Z" fill="url(#paint6_linear_70_1146)"/>
<defs>
<linearGradient id="paint0_linear_70_1146" x1="44.1535" y1="14.1957" x2="28.9695" y2="70.8633" gradientUnits="userSpaceOnUse">
<stop stop-color="#D4AF37"/>
<stop offset="1" stop-color="#6E5B1D"/>
</linearGradient>
<linearGradient id="paint1_linear_70_1146" x1="44.1535" y1="14.1957" x2="28.9695" y2="70.8633" gradientUnits="userSpaceOnUse">
<stop stop-color="#D4AF37"/>
<stop offset="1" stop-color="#6E5B1D"/>
</linearGradient>
<linearGradient id="paint2_linear_70_1146" x1="44.1535" y1="14.1957" x2="28.9695" y2="70.8633" gradientUnits="userSpaceOnUse">
<stop stop-color="#D4AF37"/>
<stop offset="1" stop-color="#6E5B1D"/>
</linearGradient>
<linearGradient id="paint3_linear_70_1146" x1="44.1535" y1="14.1957" x2="28.9695" y2="70.8633" gradientUnits="userSpaceOnUse">
<stop stop-color="#D4AF37"/>
<stop offset="1" stop-color="#6E5B1D"/>
</linearGradient>
<linearGradient id="paint4_linear_70_1146" x1="44.1535" y1="14.1957" x2="28.9695" y2="70.8633" gradientUnits="userSpaceOnUse">
<stop stop-color="#D4AF37"/>
<stop offset="1" stop-color="#6E5B1D"/>
</linearGradient>
<linearGradient id="paint5_linear_70_1146" x1="44.1535" y1="14.1957" x2="28.9695" y2="70.8633" gradientUnits="userSpaceOnUse">
<stop stop-color="#D4AF37"/>
<stop offset="1" stop-color="#6E5B1D"/>
</linearGradient>
<linearGradient id="paint6_linear_70_1146" x1="44.1535" y1="14.1957" x2="28.9695" y2="70.8633" gradientUnits="userSpaceOnUse">
<stop stop-color="#D4AF37"/>
<stop offset="1" stop-color="#6E5B1D"/>
</linearGradient>
</defs>
</svg>
