<svg width="35" height="35" viewBox="0 0 35 35" fill="none" xmlns="http://www.w3.org/2000/svg">
<path d="M8.88331 7.81579C9.04484 6.34653 11.071 6.08495 11.6004 7.465L13.057 11.2623C13.246 11.755 13.6945 12.1009 14.219 12.1586L18.2618 12.603C19.731 12.7646 19.9926 14.7907 18.6125 15.3201L14.8152 16.7768C14.3225 16.9658 13.9767 17.4142 13.919 17.9387L13.4745 21.9815C13.313 23.4507 11.2868 23.7123 10.7574 22.3323L9.30079 18.535C9.11179 18.0422 8.66338 17.6964 8.13881 17.6387L4.09607 17.1942C2.62682 17.0327 2.36523 15.0065 3.74528 14.4771L7.54259 13.0205C8.03531 12.8315 8.38117 12.3831 8.43885 11.8585L8.88331 7.81579Z" fill="url(#paint0_linear_70_1144)"/>
<path d="M22.0608 20.023C22.1602 19.1188 23.4071 18.9578 23.7329 19.8071L24.6293 22.1439C24.7456 22.4471 25.0215 22.66 25.3443 22.6955L27.8322 22.969C28.7363 23.0684 28.8973 24.3153 28.048 24.641L25.7112 25.5374C25.408 25.6537 25.1952 25.9297 25.1597 26.2525L24.8862 28.7403C24.7868 29.6445 23.5399 29.8055 23.2141 28.9562L22.3177 26.6194C22.2014 26.3162 21.9255 26.1033 21.6027 26.0678L19.1148 25.7943C18.2107 25.6949 18.0497 24.448 18.8989 24.1223L21.2358 23.2259C21.539 23.1096 21.7518 22.8336 21.7873 22.5108L22.0608 20.023Z" fill="url(#paint1_linear_70_1144)"/>
<path d="M24.4049 5.6527C24.4701 5.05934 25.2884 4.9537 25.5022 5.51103L26.0904 7.04456C26.1668 7.24354 26.3479 7.38322 26.5597 7.40651L28.1923 7.586C28.7857 7.65124 28.8913 8.4695 28.334 8.68329L26.8005 9.27155C26.6015 9.34788 26.4618 9.52897 26.4385 9.74081L26.259 11.3735C26.1938 11.9668 25.3755 12.0724 25.1618 11.5151L24.5735 9.98159C24.4972 9.78261 24.3161 9.64293 24.1042 9.61964L22.4716 9.44015C21.8782 9.37491 21.7726 8.55665 22.3299 8.34286L23.8635 7.7546C24.0624 7.67828 24.2021 7.49719 24.2254 7.28534L24.4049 5.6527Z" fill="url(#paint2_linear_70_1144)"/>
<path fill-rule="evenodd" clip-rule="evenodd" d="M24.9898 5.86273L24.8433 7.19526C24.7847 7.7279 24.4336 8.18321 23.9333 8.37512L22.6816 8.85524L24.0142 9.00174C24.5468 9.0603 25.0021 9.41149 25.194 9.91179L25.6741 11.1634L25.8206 9.83089C25.8792 9.29825 26.2304 8.84295 26.7307 8.65103L27.9823 8.17091L26.6498 8.02441C26.1171 7.96585 25.6618 7.61466 25.4699 7.11436L24.9898 5.86273ZM25.5265 5.08217C25.2822 4.44522 24.347 4.56595 24.2725 5.24407L24.0673 7.10995C24.0407 7.35206 23.8811 7.55902 23.6537 7.64625L21.9011 8.31854C21.2641 8.56288 21.3848 9.49804 22.063 9.57259L23.9288 9.77772C24.171 9.80434 24.3779 9.96397 24.4651 10.1914L25.1374 11.944C25.3818 12.5809 26.3169 12.4602 26.3915 11.7821L26.5966 9.9162C26.6232 9.67409 26.7829 9.46714 27.0103 9.3799L28.7629 8.70761C29.3998 8.46328 29.2791 7.52812 28.601 7.45357L26.7351 7.24843C26.493 7.22181 26.286 7.06218 26.1988 6.83477L25.5265 5.08217Z" fill="url(#paint3_linear_70_1144)"/>
<path d="M12.7711 32.2753C12.0636 32.3666 11.416 31.8671 11.3247 31.1596C11.2333 30.4522 11.7328 29.8046 12.4403 29.7132C13.1478 29.6219 13.7954 30.1214 13.8867 30.8289C13.9781 31.5364 13.4786 32.184 12.7711 32.2753Z" fill="url(#paint4_linear_70_1144)"/>
<path d="M5.70438 27.9781C4.99689 28.0694 4.3493 27.5699 4.25796 26.8624C4.16662 26.1549 4.66612 25.5074 5.37361 25.416C6.08111 25.3247 6.72869 25.8242 6.82003 26.5317C6.91137 27.2392 6.41188 27.8867 5.70438 27.9781Z" fill="url(#paint5_linear_70_1144)"/>
<path d="M17.1496 5.66228C16.4421 5.75362 15.7945 5.25413 15.7032 4.54663C15.6118 3.83914 16.1113 3.19155 16.8188 3.10021C17.5263 3.00887 18.1739 3.50837 18.2653 4.21586C18.3566 4.92336 17.8571 5.57094 17.1496 5.66228Z" fill="url(#paint6_linear_70_1144)"/>
<path d="M30.4982 18.2652C29.7907 18.3565 29.1431 17.857 29.0517 17.1496C28.9604 16.4421 29.4599 15.7945 30.1674 15.7031C30.8749 15.6118 31.5225 16.1113 31.6138 16.8188C31.7051 17.5263 31.2057 18.1739 30.4982 18.2652Z" fill="url(#paint7_linear_70_1144)"/>
<defs>
<linearGradient id="paint0_linear_70_1144" x1="15.5378" y1="3.2656" x2="19.1763" y2="31.4484" gradientUnits="userSpaceOnUse">
<stop stop-color="#D4AF37"/>
<stop offset="1" stop-color="#6E5B1D"/>
</linearGradient>
<linearGradient id="paint1_linear_70_1144" x1="15.5378" y1="3.2656" x2="19.1763" y2="31.4484" gradientUnits="userSpaceOnUse">
<stop stop-color="#D4AF37"/>
<stop offset="1" stop-color="#6E5B1D"/>
</linearGradient>
<linearGradient id="paint2_linear_70_1144" x1="15.5378" y1="3.2656" x2="19.1763" y2="31.4484" gradientUnits="userSpaceOnUse">
<stop stop-color="#D4AF37"/>
<stop offset="1" stop-color="#6E5B1D"/>
</linearGradient>
<linearGradient id="paint3_linear_70_1144" x1="15.5378" y1="3.2656" x2="19.1763" y2="31.4484" gradientUnits="userSpaceOnUse">
<stop stop-color="#D4AF37"/>
<stop offset="1" stop-color="#6E5B1D"/>
</linearGradient>
<linearGradient id="paint4_linear_70_1144" x1="15.5378" y1="3.2656" x2="19.1763" y2="31.4484" gradientUnits="userSpaceOnUse">
<stop stop-color="#D4AF37"/>
<stop offset="1" stop-color="#6E5B1D"/>
</linearGradient>
<linearGradient id="paint5_linear_70_1144" x1="15.5378" y1="3.2656" x2="19.1763" y2="31.4484" gradientUnits="userSpaceOnUse">
<stop stop-color="#D4AF37"/>
<stop offset="1" stop-color="#6E5B1D"/>
</linearGradient>
<linearGradient id="paint6_linear_70_1144" x1="15.5378" y1="3.2656" x2="19.1763" y2="31.4484" gradientUnits="userSpaceOnUse">
<stop stop-color="#D4AF37"/>
<stop offset="1" stop-color="#6E5B1D"/>
</linearGradient>
<linearGradient id="paint7_linear_70_1144" x1="15.5378" y1="3.2656" x2="19.1763" y2="31.4484" gradientUnits="userSpaceOnUse">
<stop stop-color="#D4AF37"/>
<stop offset="1" stop-color="#6E5B1D"/>
</linearGradient>
</defs>
</svg>
